<svg id="visual" viewBox="0 0 900 2000" width="900" height="2000" xmlns="http://www.w3.org/2000/svg" xmlns:xlink="http://www.w3.org/1999/xlink" version="1.1"><rect x="0" y="0" width="900" height="2000" fill="#0e4d7e"></rect><defs><linearGradient id="grad1_0" x1="0%" y1="0%" x2="100%" y2="100%"><stop offset="30%" stop-color="#0e4d7e" stop-opacity="1"></stop><stop offset="70%" stop-color="#0e4d7e" stop-opacity="1"></stop></linearGradient></defs><defs><linearGradient id="grad2_0" x1="0%" y1="0%" x2="100%" y2="100%"><stop offset="30%" stop-color="#0e4d7e" stop-opacity="1"></stop><stop offset="70%" stop-color="#0e4d7e" stop-opacity="1"></stop></linearGradient></defs><g transform="translate(900, 0)"><path d="M0 810C-99.1 785.9 -198.2 761.8 -301.6 728C-404.9 694.3 -512.6 650.9 -572.8 572.8C-632.9 494.6 -645.6 381.8 -677.2 280.5C-708.8 179.3 -759.4 89.6 -810 0L0 0Z" fill="#efb153"></path></g><g transform="translate(0, 2000)"><path d="M0 -810C99 -774.5 198 -738.9 288.5 -696.6C379.1 -654.3 461.2 -605.3 542.4 -542.4C623.6 -479.4 703.9 -402.7 748.3 -310C792.8 -217.3 801.4 -108.6 810 0L0 0Z" fill="#efb153"></path></g></svg>