<svg id="visual" viewBox="0 0 900 1450" width="900" height="1450" xmlns="http://www.w3.org/2000/svg" xmlns:xlink="http://www.w3.org/1999/xlink" version="1.1"><rect x="0" y="0" width="900" height="1450" fill="#0e4d7e"></rect><defs><linearGradient id="grad1_0" x1="0%" y1="0%" x2="100%" y2="100%"><stop offset="30%" stop-color="#efb153" stop-opacity="1"></stop><stop offset="70%" stop-color="#efb153" stop-opacity="1"></stop></linearGradient></defs><defs><linearGradient id="grad1_1" x1="0%" y1="0%" x2="100%" y2="100%"><stop offset="30%" stop-color="#efb153" stop-opacity="1"></stop><stop offset="70%" stop-color="#ef7e6c" stop-opacity="1"></stop></linearGradient></defs><defs><linearGradient id="grad1_2" x1="0%" y1="0%" x2="100%" y2="100%"><stop offset="30%" stop-color="#c4608b" stop-opacity="1"></stop><stop offset="70%" stop-color="#ef7e6c" stop-opacity="1"></stop></linearGradient></defs><defs><linearGradient id="grad1_3" x1="0%" y1="0%" x2="100%" y2="100%"><stop offset="30%" stop-color="#c4608b" stop-opacity="1"></stop><stop offset="70%" stop-color="#785795" stop-opacity="1"></stop></linearGradient></defs><defs><linearGradient id="grad1_4" x1="0%" y1="0%" x2="100%" y2="100%"><stop offset="30%" stop-color="#0e4d7e" stop-opacity="1"></stop><stop offset="70%" stop-color="#785795" stop-opacity="1"></stop></linearGradient></defs><defs><linearGradient id="grad2_0" x1="0%" y1="0%" x2="100%" y2="100%"><stop offset="30%" stop-color="#efb153" stop-opacity="1"></stop><stop offset="70%" stop-color="#efb153" stop-opacity="1"></stop></linearGradient></defs><defs><linearGradient id="grad2_1" x1="0%" y1="0%" x2="100%" y2="100%"><stop offset="30%" stop-color="#ef7e6c" stop-opacity="1"></stop><stop offset="70%" stop-color="#efb153" stop-opacity="1"></stop></linearGradient></defs><defs><linearGradient id="grad2_2" x1="0%" y1="0%" x2="100%" y2="100%"><stop offset="30%" stop-color="#ef7e6c" stop-opacity="1"></stop><stop offset="70%" stop-color="#c4608b" stop-opacity="1"></stop></linearGradient></defs><defs><linearGradient id="grad2_3" x1="0%" y1="0%" x2="100%" y2="100%"><stop offset="30%" stop-color="#785795" stop-opacity="1"></stop><stop offset="70%" stop-color="#c4608b" stop-opacity="1"></stop></linearGradient></defs><defs><linearGradient id="grad2_4" x1="0%" y1="0%" x2="100%" y2="100%"><stop offset="30%" stop-color="#785795" stop-opacity="1"></stop><stop offset="70%" stop-color="#0e4d7e" stop-opacity="1"></stop></linearGradient></defs><g transform="translate(900, 0)"><path d="M0 810.6C-72.5 750.3 -145 689.9 -212 652.4C-279 615 -340.5 600.4 -422 580.9C-503.6 561.3 -605.1 536.7 -655.8 476.5C-706.5 416.3 -706.4 320.5 -723.8 235.2C-741.1 149.8 -775.9 74.9 -810.6 0L0 0Z" fill="#4a538e"></path><path d="M0 648.5C-58 600.2 -116 551.9 -169.6 521.9C-223.2 492 -272.4 480.4 -337.6 464.7C-402.8 449 -484.1 429.3 -524.7 381.2C-565.2 333 -565.1 256.4 -579 188.1C-592.9 119.9 -620.7 59.9 -648.5 0L0 0Z" fill="#a15a94"></path><path d="M0 486.4C-43.5 450.2 -87 413.9 -127.2 391.5C-167.4 369 -204.3 360.3 -253.2 348.5C-302.1 336.8 -363.1 322 -393.5 285.9C-423.9 249.8 -423.9 192.3 -434.3 141.1C-444.7 89.9 -465.5 44.9 -486.4 0L0 0Z" fill="#de6b7d"></path><path d="M0 324.3C-29 300.1 -58 276 -84.8 261C-111.6 246 -136.2 240.2 -168.8 232.3C-201.4 224.5 -242 214.7 -262.3 190.6C-282.6 166.5 -282.6 128.2 -289.5 94.1C-296.4 59.9 -310.3 30 -324.3 0L0 0Z" fill="#f4965c"></path><path d="M0 162.1C-14.5 150.1 -29 138 -42.4 130.5C-55.8 123 -68.1 120.1 -84.4 116.2C-100.7 112.3 -121 107.3 -131.2 95.3C-141.3 83.3 -141.3 64.1 -144.8 47C-148.2 30 -155.2 15 -162.1 0L0 0Z" fill="#efb153"></path></g><g transform="translate(0, 1450)"><path d="M0 -810.6C92.1 -813.2 184.3 -815.8 250.5 -771C316.7 -726.1 357 -633.8 413.2 -568.7C469.4 -503.7 541.6 -465.8 554.2 -402.6C566.8 -339.4 519.8 -250.9 552.6 -179.5C585.4 -108.2 698 -54.1 810.6 0L0 0Z" fill="#4a538e"></path><path d="M0 -648.5C73.7 -650.6 147.4 -652.7 200.4 -616.8C253.4 -580.9 285.6 -507 330.6 -455C375.5 -402.9 433.3 -372.7 443.3 -322.1C453.4 -271.5 415.8 -200.7 442.1 -143.6C468.3 -86.6 558.4 -43.3 648.5 0L0 0Z" fill="#a15a94"></path><path d="M0 -486.4C55.3 -487.9 110.6 -489.5 150.3 -462.6C190 -435.7 214.2 -380.3 247.9 -341.2C281.7 -302.2 325 -279.5 332.5 -241.6C340.1 -203.7 311.9 -150.5 331.5 -107.7C351.2 -64.9 418.8 -32.5 486.4 0L0 0Z" fill="#de6b7d"></path><path d="M0 -324.3C36.9 -325.3 73.7 -326.3 100.2 -308.4C126.7 -290.4 142.8 -253.5 165.3 -227.5C187.8 -201.5 216.6 -186.3 221.7 -161.1C226.7 -135.8 207.9 -100.3 221 -71.8C234.2 -43.3 279.2 -21.6 324.3 0L0 0Z" fill="#f4965c"></path><path d="M0 -162.1C18.4 -162.6 36.9 -163.2 50.1 -154.2C63.3 -145.2 71.4 -126.8 82.6 -113.7C93.9 -100.7 108.3 -93.2 110.8 -80.5C113.4 -67.9 104 -50.2 110.5 -35.9C117.1 -21.6 139.6 -10.8 162.1 0L0 0Z" fill="#efb153"></path></g></svg>